<?xml version="1.0" encoding="utf-8" standalone="no"?>
<!DOCTYPE svg PUBLIC "-//W3C//DTD SVG 1.1//EN"
  "http://www.w3.org/Graphics/SVG/1.1/DTD/svg11.dtd">
<svg xmlns:xlink="http://www.w3.org/1999/xlink" width="576pt" height="576pt" viewBox="0 0 576 576" xmlns="http://www.w3.org/2000/svg" version="1.1">
 <metadata>
  <rdf:RDF xmlns:dc="http://purl.org/dc/elements/1.1/" xmlns:cc="http://creativecommons.org/ns#" xmlns:rdf="http://www.w3.org/1999/02/22-rdf-syntax-ns#">
   <cc:Work>
    <dc:type rdf:resource="http://purl.org/dc/dcmitype/StillImage"/>
    <dc:date>2024-12-12T14:24:02.585506</dc:date>
    <dc:format>image/svg+xml</dc:format>
    <dc:creator>
     <cc:Agent>
      <dc:title>Matplotlib v3.8.0, https://matplotlib.org/</dc:title>
     </cc:Agent>
    </dc:creator>
   </cc:Work>
  </rdf:RDF>
 </metadata>
 <defs>
  <style type="text/css">*{stroke-linejoin: round; stroke-linecap: butt}</style>
 </defs>
 <g id="figure_1">
  <g id="patch_1">
   <path d="M 0 576 
L 576 576 
L 576 0 
L 0 0 
z
" style="fill: #ffffff"/>
  </g>
  <g id="axes_1">
   <g id="patch_2">
    <path d="M 72 512.64 
L 518.4 512.64 
L 518.4 69.12 
L 72 69.12 
z
" style="fill: #ffffff"/>
   </g>
   <g id="LineCollection_1">
    <path d="M 187.425002 373.185022 
L 139.614155 289.783227 
" clip-path="url(#p16cbef47c2)" style="fill: none; stroke: #000000"/>
    <path d="M 187.425002 373.185022 
L 141.987788 286.228871 
" clip-path="url(#p16cbef47c2)" style="fill: none; stroke: #000000"/>
    <path d="M 187.425002 373.185022 
L 291.097 396.899797 
" clip-path="url(#p16cbef47c2)" style="fill: none; stroke: #000000"/>
    <path d="M 187.425002 373.185022 
L 322.039093 461.435011 
" clip-path="url(#p16cbef47c2)" style="fill: none; stroke: #000000"/>
    <path d="M 187.425002 373.185022 
L 165.208655 389.471109 
" clip-path="url(#p16cbef47c2)" style="fill: none; stroke: #000000"/>
    <path d="M 470.688873 399.305139 
L 479.66281 388.72035 
" clip-path="url(#p16cbef47c2)" style="fill: none; stroke: #000000"/>
    <path d="M 470.688873 399.305139 
L 476.132007 387.902826 
" clip-path="url(#p16cbef47c2)" style="fill: none; stroke: #000000"/>
    <path d="M 470.688873 399.305139 
L 338.320214 474.152727 
" clip-path="url(#p16cbef47c2)" style="fill: none; stroke: #000000"/>
    <path d="M 470.688873 399.305139 
L 410.175815 411.318654 
" clip-path="url(#p16cbef47c2)" style="fill: none; stroke: #000000"/>
    <path d="M 410.175815 411.318654 
L 338.320214 474.152727 
" clip-path="url(#p16cbef47c2)" style="fill: none; stroke: #000000"/>
    <path d="M 410.175815 411.318654 
L 476.132007 387.902826 
" clip-path="url(#p16cbef47c2)" style="fill: none; stroke: #000000"/>
    <path d="M 410.175815 411.318654 
L 140.343237 256.95888 
" clip-path="url(#p16cbef47c2)" style="fill: none; stroke: #000000"/>
    <path d="M 410.175815 411.318654 
L 403.128056 417.282095 
" clip-path="url(#p16cbef47c2)" style="fill: none; stroke: #000000"/>
    <path d="M 410.175815 411.318654 
L 141.987788 286.228871 
" clip-path="url(#p16cbef47c2)" style="fill: none; stroke: #000000"/>
    <path d="M 403.128056 417.282095 
L 140.343237 256.95888 
" clip-path="url(#p16cbef47c2)" style="fill: none; stroke: #ff0000"/>
    <path d="M 403.128056 417.282095 
L 338.320214 474.152727 
" clip-path="url(#p16cbef47c2)" style="fill: none; stroke: #000000"/>
    <path d="M 435.575518 109.269496 
L 291.097 396.899797 
" clip-path="url(#p16cbef47c2)" style="fill: none; stroke: #000000"/>
    <path d="M 435.575518 109.269496 
L 369.330386 461.304764 
" clip-path="url(#p16cbef47c2)" style="fill: none; stroke: #000000"/>
    <path d="M 435.575518 109.269496 
L 433.512132 110.203804 
" clip-path="url(#p16cbef47c2)" style="fill: none; stroke: #000000"/>
    <path d="M 435.575518 109.269496 
L 434.987941 107.607273 
" clip-path="url(#p16cbef47c2)" style="fill: none; stroke: #000000"/>
    <path d="M 479.66281 388.72035 
L 414.773922 254.745149 
" clip-path="url(#p16cbef47c2)" style="fill: none; stroke: #000000"/>
    <path d="M 479.66281 388.72035 
L 476.132007 387.902826 
" clip-path="url(#p16cbef47c2)" style="fill: none; stroke: #000000"/>
    <path d="M 322.039093 461.435011 
L 165.208655 389.471109 
" clip-path="url(#p16cbef47c2)" style="fill: none; stroke: #000000"/>
    <path d="M 322.039093 461.435011 
L 291.097 396.899797 
" clip-path="url(#p16cbef47c2)" style="fill: none; stroke: #000000"/>
    <path d="M 322.039093 461.435011 
L 355.645944 468.53555 
" clip-path="url(#p16cbef47c2)" style="fill: none; stroke: #000000"/>
    <path d="M 409.745803 251.642992 
L 414.773922 254.745149 
" clip-path="url(#p16cbef47c2)" style="fill: none; stroke: #000000"/>
    <path d="M 409.745803 251.642992 
L 400.308223 252.561632 
" clip-path="url(#p16cbef47c2)" style="fill: none; stroke: #000000"/>
    <path d="M 409.745803 251.642992 
L 407.807531 253.236363 
" clip-path="url(#p16cbef47c2)" style="fill: none; stroke: #000000"/>
    <path d="M 139.614155 289.783227 
L 110.73719 237.609183 
" clip-path="url(#p16cbef47c2)" style="fill: none; stroke: #000000"/>
    <path d="M 139.614155 289.783227 
L 141.987788 286.228871 
" clip-path="url(#p16cbef47c2)" style="fill: none; stroke: #000000"/>
    <path d="M 139.614155 289.783227 
L 165.208655 389.471109 
" clip-path="url(#p16cbef47c2)" style="fill: none; stroke: #000000"/>
    <path d="M 414.773922 254.745149 
L 476.132007 387.902826 
" clip-path="url(#p16cbef47c2)" style="fill: none; stroke: #000000"/>
    <path d="M 414.773922 254.745149 
L 407.807531 253.236363 
" clip-path="url(#p16cbef47c2)" style="fill: none; stroke: #000000"/>
    <path d="M 476.132007 387.902826 
L 407.807531 253.236363 
" clip-path="url(#p16cbef47c2)" style="fill: none; stroke: #000000"/>
    <path d="M 291.097 396.899797 
L 433.512132 110.203804 
" clip-path="url(#p16cbef47c2)" style="fill: none; stroke: #000000"/>
    <path d="M 291.097 396.899797 
L 369.330386 461.304764 
" clip-path="url(#p16cbef47c2)" style="fill: none; stroke: #000000"/>
    <path d="M 291.097 396.899797 
L 355.645944 468.53555 
" clip-path="url(#p16cbef47c2)" style="fill: none; stroke: #000000"/>
    <path d="M 433.512132 110.203804 
L 392.958836 205.796822 
" clip-path="url(#p16cbef47c2)" style="fill: none; stroke: #000000"/>
    <path d="M 433.512132 110.203804 
L 430.754109 111.974059 
" clip-path="url(#p16cbef47c2)" style="fill: none; stroke: #000000"/>
    <path d="M 433.512132 110.203804 
L 434.987941 107.607273 
" clip-path="url(#p16cbef47c2)" style="fill: none; stroke: #000000"/>
    <path d="M 392.958836 205.796822 
L 381.665749 256.20771 
" clip-path="url(#p16cbef47c2)" style="fill: none; stroke: #000000"/>
    <path d="M 392.958836 205.796822 
L 349.272209 266.203543 
" clip-path="url(#p16cbef47c2)" style="fill: none; stroke: #000000"/>
    <path d="M 392.958836 205.796822 
L 394.229838 206.551282 
" clip-path="url(#p16cbef47c2)" style="fill: none; stroke: #000000"/>
    <path d="M 392.958836 205.796822 
L 430.754109 111.974059 
" clip-path="url(#p16cbef47c2)" style="fill: none; stroke: #000000"/>
    <path d="M 140.343237 256.95888 
L 141.987788 286.228871 
" clip-path="url(#p16cbef47c2)" style="fill: none; stroke: #000000"/>
    <path d="M 140.343237 256.95888 
L 110.73719 237.609183 
" clip-path="url(#p16cbef47c2)" style="fill: none; stroke: #000000"/>
    <path d="M 407.807531 253.236363 
L 381.665749 256.20771 
" clip-path="url(#p16cbef47c2)" style="fill: none; stroke: #000000"/>
    <path d="M 407.807531 253.236363 
L 400.308223 252.561632 
" clip-path="url(#p16cbef47c2)" style="fill: none; stroke: #000000"/>
    <path d="M 430.754109 111.974059 
L 394.229838 206.551282 
" clip-path="url(#p16cbef47c2)" style="fill: none; stroke: #000000"/>
    <path d="M 430.754109 111.974059 
L 434.987941 107.607273 
" clip-path="url(#p16cbef47c2)" style="fill: none; stroke: #000000"/>
    <path d="M 349.058827 269.091487 
L 349.272209 266.203543 
" clip-path="url(#p16cbef47c2)" style="fill: none; stroke: #000000"/>
    <path d="M 349.058827 269.091487 
L 380.889478 257.77957 
" clip-path="url(#p16cbef47c2)" style="fill: none; stroke: #000000"/>
    <path d="M 349.058827 269.091487 
L 381.665749 256.20771 
" clip-path="url(#p16cbef47c2)" style="fill: none; stroke: #000000"/>
    <path d="M 381.665749 256.20771 
L 400.308223 252.561632 
" clip-path="url(#p16cbef47c2)" style="fill: none; stroke: #000000"/>
    <path d="M 381.665749 256.20771 
L 380.889478 257.77957 
" clip-path="url(#p16cbef47c2)" style="fill: none; stroke: #000000"/>
    <path d="M 381.665749 256.20771 
L 349.272209 266.203543 
" clip-path="url(#p16cbef47c2)" style="fill: none; stroke: #000000"/>
    <path d="M 380.889478 257.77957 
L 400.308223 252.561632 
" clip-path="url(#p16cbef47c2)" style="fill: none; stroke: #000000"/>
    <path d="M 110.73719 237.609183 
L 141.987788 286.228871 
" clip-path="url(#p16cbef47c2)" style="fill: none; stroke: #000000"/>
    <path d="M 355.645944 468.53555 
L 369.330386 461.304764 
" clip-path="url(#p16cbef47c2)" style="fill: none; stroke: #000000"/>
    <path d="M 394.229838 206.551282 
L 349.272209 266.203543 
" clip-path="url(#p16cbef47c2)" style="fill: none; stroke: #000000"/>
   </g>
   <g id="matplotlib.axis_1">
    <g id="xtick_1"/>
    <g id="xtick_2"/>
    <g id="xtick_3"/>
    <g id="xtick_4"/>
    <g id="xtick_5"/>
   </g>
   <g id="matplotlib.axis_2">
    <g id="ytick_1"/>
    <g id="ytick_2"/>
    <g id="ytick_3"/>
    <g id="ytick_4"/>
    <g id="ytick_5"/>
    <g id="ytick_6"/>
    <g id="ytick_7"/>
    <g id="ytick_8"/>
    <g id="ytick_9"/>
   </g>
   <g id="PathCollection_1">
    <defs>
     <path id="m4791b8875f" d="M 0 3.535534 
C 0.937635 3.535534 1.836992 3.163008 2.5 2.5 
C 3.163008 1.836992 3.535534 0.937635 3.535534 0 
C 3.535534 -0.937635 3.163008 -1.836992 2.5 -2.5 
C 1.836992 -3.163008 0.937635 -3.535534 0 -3.535534 
C -0.937635 -3.535534 -1.836992 -3.163008 -2.5 -2.5 
C -3.163008 -1.836992 -3.535534 -0.937635 -3.535534 0 
C -3.535534 0.937635 -3.163008 1.836992 -2.5 2.5 
C -1.836992 3.163008 -0.937635 3.535534 0 3.535534 
z
" style="stroke: #0000ff"/>
    </defs>
    <g clip-path="url(#p16cbef47c2)">
     <use xlink:href="#m4791b8875f" x="187.425002" y="373.185022" style="fill: #0000ff; stroke: #0000ff"/>
     <use xlink:href="#m4791b8875f" x="470.688873" y="399.305139" style="fill: #0000ff; stroke: #0000ff"/>
     <use xlink:href="#m4791b8875f" x="410.175815" y="411.318654" style="fill: #0000ff; stroke: #0000ff"/>
     <use xlink:href="#m4791b8875f" x="403.128056" y="417.282095" style="fill: #0000ff; stroke: #0000ff"/>
     <use xlink:href="#m4791b8875f" x="435.575518" y="109.269496" style="fill: #0000ff; stroke: #0000ff"/>
     <use xlink:href="#m4791b8875f" x="479.66281" y="388.72035" style="fill: #0000ff; stroke: #0000ff"/>
     <use xlink:href="#m4791b8875f" x="322.039093" y="461.435011" style="fill: #0000ff; stroke: #0000ff"/>
     <use xlink:href="#m4791b8875f" x="409.745803" y="251.642992" style="fill: #0000ff; stroke: #0000ff"/>
     <use xlink:href="#m4791b8875f" x="139.614155" y="289.783227" style="fill: #0000ff; stroke: #0000ff"/>
     <use xlink:href="#m4791b8875f" x="414.773922" y="254.745149" style="fill: #0000ff; stroke: #0000ff"/>
     <use xlink:href="#m4791b8875f" x="476.132007" y="387.902826" style="fill: #0000ff; stroke: #0000ff"/>
     <use xlink:href="#m4791b8875f" x="165.208655" y="389.471109" style="fill: #0000ff; stroke: #0000ff"/>
     <use xlink:href="#m4791b8875f" x="291.097" y="396.899797" style="fill: #0000ff; stroke: #0000ff"/>
     <use xlink:href="#m4791b8875f" x="433.512132" y="110.203804" style="fill: #0000ff; stroke: #0000ff"/>
     <use xlink:href="#m4791b8875f" x="392.958836" y="205.796822" style="fill: #0000ff; stroke: #0000ff"/>
     <use xlink:href="#m4791b8875f" x="140.343237" y="256.95888" style="fill: #0000ff; stroke: #0000ff"/>
     <use xlink:href="#m4791b8875f" x="407.807531" y="253.236363" style="fill: #0000ff; stroke: #0000ff"/>
     <use xlink:href="#m4791b8875f" x="430.754109" y="111.974059" style="fill: #0000ff; stroke: #0000ff"/>
     <use xlink:href="#m4791b8875f" x="349.058827" y="269.091487" style="fill: #0000ff; stroke: #0000ff"/>
     <use xlink:href="#m4791b8875f" x="381.665749" y="256.20771" style="fill: #0000ff; stroke: #0000ff"/>
     <use xlink:href="#m4791b8875f" x="380.889478" y="257.77957" style="fill: #0000ff; stroke: #0000ff"/>
     <use xlink:href="#m4791b8875f" x="110.73719" y="237.609183" style="fill: #0000ff; stroke: #0000ff"/>
     <use xlink:href="#m4791b8875f" x="434.987941" y="107.607273" style="fill: #0000ff; stroke: #0000ff"/>
     <use xlink:href="#m4791b8875f" x="355.645944" y="468.53555" style="fill: #0000ff; stroke: #0000ff"/>
     <use xlink:href="#m4791b8875f" x="369.330386" y="461.304764" style="fill: #0000ff; stroke: #0000ff"/>
     <use xlink:href="#m4791b8875f" x="394.229838" y="206.551282" style="fill: #0000ff; stroke: #0000ff"/>
     <use xlink:href="#m4791b8875f" x="349.272209" y="266.203543" style="fill: #0000ff; stroke: #0000ff"/>
     <use xlink:href="#m4791b8875f" x="400.308223" y="252.561632" style="fill: #0000ff; stroke: #0000ff"/>
     <use xlink:href="#m4791b8875f" x="338.320214" y="474.152727" style="fill: #0000ff; stroke: #0000ff"/>
     <use xlink:href="#m4791b8875f" x="141.987788" y="286.228871" style="fill: #0000ff; stroke: #0000ff"/>
    </g>
   </g>
   <g id="patch_3">
    <path d="M 72 512.64 
L 72 69.12 
" style="fill: none; stroke: #000000; stroke-width: 0.8; stroke-linejoin: miter; stroke-linecap: square"/>
   </g>
   <g id="patch_4">
    <path d="M 518.4 512.64 
L 518.4 69.12 
" style="fill: none; stroke: #000000; stroke-width: 0.8; stroke-linejoin: miter; stroke-linecap: square"/>
   </g>
   <g id="patch_5">
    <path d="M 72 512.64 
L 518.4 512.64 
" style="fill: none; stroke: #000000; stroke-width: 0.8; stroke-linejoin: miter; stroke-linecap: square"/>
   </g>
   <g id="patch_6">
    <path d="M 72 69.12 
L 518.4 69.12 
" style="fill: none; stroke: #000000; stroke-width: 0.8; stroke-linejoin: miter; stroke-linecap: square"/>
   </g>
   <g id="text_1">
    <g clip-path="url(#p16cbef47c2)">
     <!-- 0 -->
     <g style="fill: #ffffff" transform="translate(184.880002 375.392522) scale(0.08 -0.08)">
      <defs>
       <path id="DejaVuSans-30" d="M 2034 4250 
Q 1547 4250 1301 3770 
Q 1056 3291 1056 2328 
Q 1056 1369 1301 889 
Q 1547 409 2034 409 
Q 2525 409 2770 889 
Q 3016 1369 3016 2328 
Q 3016 3291 2770 3770 
Q 2525 4250 2034 4250 
z
M 2034 4750 
Q 2819 4750 3233 4129 
Q 3647 3509 3647 2328 
Q 3647 1150 3233 529 
Q 2819 -91 2034 -91 
Q 1250 -91 836 529 
Q 422 1150 422 2328 
Q 422 3509 836 4129 
Q 1250 4750 2034 4750 
z
" transform="scale(0.015625)"/>
      </defs>
      <use xlink:href="#DejaVuSans-30"/>
     </g>
    </g>
   </g>
   <g id="text_2">
    <g clip-path="url(#p16cbef47c2)">
     <!-- 1 -->
     <g style="fill: #ffffff" transform="translate(468.143873 401.512639) scale(0.08 -0.08)">
      <defs>
       <path id="DejaVuSans-31" d="M 794 531 
L 1825 531 
L 1825 4091 
L 703 3866 
L 703 4441 
L 1819 4666 
L 2450 4666 
L 2450 531 
L 3481 531 
L 3481 0 
L 794 0 
L 794 531 
z
" transform="scale(0.015625)"/>
      </defs>
      <use xlink:href="#DejaVuSans-31"/>
     </g>
    </g>
   </g>
   <g id="text_3">
    <g clip-path="url(#p16cbef47c2)">
     <!-- 2 -->
     <g style="fill: #ffffff" transform="translate(407.630815 413.526154) scale(0.08 -0.08)">
      <defs>
       <path id="DejaVuSans-32" d="M 1228 531 
L 3431 531 
L 3431 0 
L 469 0 
L 469 531 
Q 828 903 1448 1529 
Q 2069 2156 2228 2338 
Q 2531 2678 2651 2914 
Q 2772 3150 2772 3378 
Q 2772 3750 2511 3984 
Q 2250 4219 1831 4219 
Q 1534 4219 1204 4116 
Q 875 4013 500 3803 
L 500 4441 
Q 881 4594 1212 4672 
Q 1544 4750 1819 4750 
Q 2544 4750 2975 4387 
Q 3406 4025 3406 3419 
Q 3406 3131 3298 2873 
Q 3191 2616 2906 2266 
Q 2828 2175 2409 1742 
Q 1991 1309 1228 531 
z
" transform="scale(0.015625)"/>
      </defs>
      <use xlink:href="#DejaVuSans-32"/>
     </g>
    </g>
   </g>
   <g id="text_4">
    <g clip-path="url(#p16cbef47c2)">
     <!-- 3 -->
     <g style="fill: #ffffff" transform="translate(400.583056 419.489595) scale(0.08 -0.08)">
      <defs>
       <path id="DejaVuSans-33" d="M 2597 2516 
Q 3050 2419 3304 2112 
Q 3559 1806 3559 1356 
Q 3559 666 3084 287 
Q 2609 -91 1734 -91 
Q 1441 -91 1130 -33 
Q 819 25 488 141 
L 488 750 
Q 750 597 1062 519 
Q 1375 441 1716 441 
Q 2309 441 2620 675 
Q 2931 909 2931 1356 
Q 2931 1769 2642 2001 
Q 2353 2234 1838 2234 
L 1294 2234 
L 1294 2753 
L 1863 2753 
Q 2328 2753 2575 2939 
Q 2822 3125 2822 3475 
Q 2822 3834 2567 4026 
Q 2313 4219 1838 4219 
Q 1578 4219 1281 4162 
Q 984 4106 628 3988 
L 628 4550 
Q 988 4650 1302 4700 
Q 1616 4750 1894 4750 
Q 2613 4750 3031 4423 
Q 3450 4097 3450 3541 
Q 3450 3153 3228 2886 
Q 3006 2619 2597 2516 
z
" transform="scale(0.015625)"/>
      </defs>
      <use xlink:href="#DejaVuSans-33"/>
     </g>
    </g>
   </g>
   <g id="text_5">
    <g clip-path="url(#p16cbef47c2)">
     <!-- 4 -->
     <g style="fill: #ffffff" transform="translate(433.030518 111.476996) scale(0.08 -0.08)">
      <defs>
       <path id="DejaVuSans-34" d="M 2419 4116 
L 825 1625 
L 2419 1625 
L 2419 4116 
z
M 2253 4666 
L 3047 4666 
L 3047 1625 
L 3713 1625 
L 3713 1100 
L 3047 1100 
L 3047 0 
L 2419 0 
L 2419 1100 
L 313 1100 
L 313 1709 
L 2253 4666 
z
" transform="scale(0.015625)"/>
      </defs>
      <use xlink:href="#DejaVuSans-34"/>
     </g>
    </g>
   </g>
   <g id="text_6">
    <g clip-path="url(#p16cbef47c2)">
     <!-- 5 -->
     <g style="fill: #ffffff" transform="translate(477.11781 390.92785) scale(0.08 -0.08)">
      <defs>
       <path id="DejaVuSans-35" d="M 691 4666 
L 3169 4666 
L 3169 4134 
L 1269 4134 
L 1269 2991 
Q 1406 3038 1543 3061 
Q 1681 3084 1819 3084 
Q 2600 3084 3056 2656 
Q 3513 2228 3513 1497 
Q 3513 744 3044 326 
Q 2575 -91 1722 -91 
Q 1428 -91 1123 -41 
Q 819 9 494 109 
L 494 744 
Q 775 591 1075 516 
Q 1375 441 1709 441 
Q 2250 441 2565 725 
Q 2881 1009 2881 1497 
Q 2881 1984 2565 2268 
Q 2250 2553 1709 2553 
Q 1456 2553 1204 2497 
Q 953 2441 691 2322 
L 691 4666 
z
" transform="scale(0.015625)"/>
      </defs>
      <use xlink:href="#DejaVuSans-35"/>
     </g>
    </g>
   </g>
   <g id="text_7">
    <g clip-path="url(#p16cbef47c2)">
     <!-- 6 -->
     <g style="fill: #ffffff" transform="translate(319.494093 463.642511) scale(0.08 -0.08)">
      <defs>
       <path id="DejaVuSans-36" d="M 2113 2584 
Q 1688 2584 1439 2293 
Q 1191 2003 1191 1497 
Q 1191 994 1439 701 
Q 1688 409 2113 409 
Q 2538 409 2786 701 
Q 3034 994 3034 1497 
Q 3034 2003 2786 2293 
Q 2538 2584 2113 2584 
z
M 3366 4563 
L 3366 3988 
Q 3128 4100 2886 4159 
Q 2644 4219 2406 4219 
Q 1781 4219 1451 3797 
Q 1122 3375 1075 2522 
Q 1259 2794 1537 2939 
Q 1816 3084 2150 3084 
Q 2853 3084 3261 2657 
Q 3669 2231 3669 1497 
Q 3669 778 3244 343 
Q 2819 -91 2113 -91 
Q 1303 -91 875 529 
Q 447 1150 447 2328 
Q 447 3434 972 4092 
Q 1497 4750 2381 4750 
Q 2619 4750 2861 4703 
Q 3103 4656 3366 4563 
z
" transform="scale(0.015625)"/>
      </defs>
      <use xlink:href="#DejaVuSans-36"/>
     </g>
    </g>
   </g>
   <g id="text_8">
    <g clip-path="url(#p16cbef47c2)">
     <!-- 7 -->
     <g style="fill: #ffffff" transform="translate(407.200803 253.850492) scale(0.08 -0.08)">
      <defs>
       <path id="DejaVuSans-37" d="M 525 4666 
L 3525 4666 
L 3525 4397 
L 1831 0 
L 1172 0 
L 2766 4134 
L 525 4134 
L 525 4666 
z
" transform="scale(0.015625)"/>
      </defs>
      <use xlink:href="#DejaVuSans-37"/>
     </g>
    </g>
   </g>
   <g id="text_9">
    <g clip-path="url(#p16cbef47c2)">
     <!-- 8 -->
     <g style="fill: #ffffff" transform="translate(137.069155 291.990727) scale(0.08 -0.08)">
      <defs>
       <path id="DejaVuSans-38" d="M 2034 2216 
Q 1584 2216 1326 1975 
Q 1069 1734 1069 1313 
Q 1069 891 1326 650 
Q 1584 409 2034 409 
Q 2484 409 2743 651 
Q 3003 894 3003 1313 
Q 3003 1734 2745 1975 
Q 2488 2216 2034 2216 
z
M 1403 2484 
Q 997 2584 770 2862 
Q 544 3141 544 3541 
Q 544 4100 942 4425 
Q 1341 4750 2034 4750 
Q 2731 4750 3128 4425 
Q 3525 4100 3525 3541 
Q 3525 3141 3298 2862 
Q 3072 2584 2669 2484 
Q 3125 2378 3379 2068 
Q 3634 1759 3634 1313 
Q 3634 634 3220 271 
Q 2806 -91 2034 -91 
Q 1263 -91 848 271 
Q 434 634 434 1313 
Q 434 1759 690 2068 
Q 947 2378 1403 2484 
z
M 1172 3481 
Q 1172 3119 1398 2916 
Q 1625 2713 2034 2713 
Q 2441 2713 2670 2916 
Q 2900 3119 2900 3481 
Q 2900 3844 2670 4047 
Q 2441 4250 2034 4250 
Q 1625 4250 1398 4047 
Q 1172 3844 1172 3481 
z
" transform="scale(0.015625)"/>
      </defs>
      <use xlink:href="#DejaVuSans-38"/>
     </g>
    </g>
   </g>
   <g id="text_10">
    <g clip-path="url(#p16cbef47c2)">
     <!-- 9 -->
     <g style="fill: #ffffff" transform="translate(412.228922 256.952649) scale(0.08 -0.08)">
      <defs>
       <path id="DejaVuSans-39" d="M 703 97 
L 703 672 
Q 941 559 1184 500 
Q 1428 441 1663 441 
Q 2288 441 2617 861 
Q 2947 1281 2994 2138 
Q 2813 1869 2534 1725 
Q 2256 1581 1919 1581 
Q 1219 1581 811 2004 
Q 403 2428 403 3163 
Q 403 3881 828 4315 
Q 1253 4750 1959 4750 
Q 2769 4750 3195 4129 
Q 3622 3509 3622 2328 
Q 3622 1225 3098 567 
Q 2575 -91 1691 -91 
Q 1453 -91 1209 -44 
Q 966 3 703 97 
z
M 1959 2075 
Q 2384 2075 2632 2365 
Q 2881 2656 2881 3163 
Q 2881 3666 2632 3958 
Q 2384 4250 1959 4250 
Q 1534 4250 1286 3958 
Q 1038 3666 1038 3163 
Q 1038 2656 1286 2365 
Q 1534 2075 1959 2075 
z
" transform="scale(0.015625)"/>
      </defs>
      <use xlink:href="#DejaVuSans-39"/>
     </g>
    </g>
   </g>
   <g id="text_11">
    <g clip-path="url(#p16cbef47c2)">
     <!-- 10 -->
     <g style="fill: #ffffff" transform="translate(471.042007 390.110326) scale(0.08 -0.08)">
      <use xlink:href="#DejaVuSans-31"/>
      <use xlink:href="#DejaVuSans-30" x="63.623047"/>
     </g>
    </g>
   </g>
   <g id="text_12">
    <g clip-path="url(#p16cbef47c2)">
     <!-- 11 -->
     <g style="fill: #ffffff" transform="translate(160.118655 391.678609) scale(0.08 -0.08)">
      <use xlink:href="#DejaVuSans-31"/>
      <use xlink:href="#DejaVuSans-31" x="63.623047"/>
     </g>
    </g>
   </g>
   <g id="text_13">
    <g clip-path="url(#p16cbef47c2)">
     <!-- 12 -->
     <g style="fill: #ffffff" transform="translate(286.007 399.107297) scale(0.08 -0.08)">
      <use xlink:href="#DejaVuSans-31"/>
      <use xlink:href="#DejaVuSans-32" x="63.623047"/>
     </g>
    </g>
   </g>
   <g id="text_14">
    <g clip-path="url(#p16cbef47c2)">
     <!-- 13 -->
     <g style="fill: #ffffff" transform="translate(428.422132 112.411304) scale(0.08 -0.08)">
      <use xlink:href="#DejaVuSans-31"/>
      <use xlink:href="#DejaVuSans-33" x="63.623047"/>
     </g>
    </g>
   </g>
   <g id="text_15">
    <g clip-path="url(#p16cbef47c2)">
     <!-- 14 -->
     <g style="fill: #ffffff" transform="translate(387.868836 208.004322) scale(0.08 -0.08)">
      <use xlink:href="#DejaVuSans-31"/>
      <use xlink:href="#DejaVuSans-34" x="63.623047"/>
     </g>
    </g>
   </g>
   <g id="text_16">
    <g clip-path="url(#p16cbef47c2)">
     <!-- 15 -->
     <g style="fill: #ffffff" transform="translate(135.253237 259.16638) scale(0.08 -0.08)">
      <use xlink:href="#DejaVuSans-31"/>
      <use xlink:href="#DejaVuSans-35" x="63.623047"/>
     </g>
    </g>
   </g>
   <g id="text_17">
    <g clip-path="url(#p16cbef47c2)">
     <!-- 16 -->
     <g style="fill: #ffffff" transform="translate(402.717531 255.443863) scale(0.08 -0.08)">
      <use xlink:href="#DejaVuSans-31"/>
      <use xlink:href="#DejaVuSans-36" x="63.623047"/>
     </g>
    </g>
   </g>
   <g id="text_18">
    <g clip-path="url(#p16cbef47c2)">
     <!-- 17 -->
     <g style="fill: #ffffff" transform="translate(425.664109 114.181559) scale(0.08 -0.08)">
      <use xlink:href="#DejaVuSans-31"/>
      <use xlink:href="#DejaVuSans-37" x="63.623047"/>
     </g>
    </g>
   </g>
   <g id="text_19">
    <g clip-path="url(#p16cbef47c2)">
     <!-- 18 -->
     <g style="fill: #ffffff" transform="translate(343.968827 271.298987) scale(0.08 -0.08)">
      <use xlink:href="#DejaVuSans-31"/>
      <use xlink:href="#DejaVuSans-38" x="63.623047"/>
     </g>
    </g>
   </g>
   <g id="text_20">
    <g clip-path="url(#p16cbef47c2)">
     <!-- 19 -->
     <g style="fill: #ffffff" transform="translate(376.575749 258.41521) scale(0.08 -0.08)">
      <use xlink:href="#DejaVuSans-31"/>
      <use xlink:href="#DejaVuSans-39" x="63.623047"/>
     </g>
    </g>
   </g>
   <g id="text_21">
    <g clip-path="url(#p16cbef47c2)">
     <!-- 20 -->
     <g style="fill: #ffffff" transform="translate(375.799478 259.98707) scale(0.08 -0.08)">
      <use xlink:href="#DejaVuSans-32"/>
      <use xlink:href="#DejaVuSans-30" x="63.623047"/>
     </g>
    </g>
   </g>
   <g id="text_22">
    <g clip-path="url(#p16cbef47c2)">
     <!-- 21 -->
     <g style="fill: #ffffff" transform="translate(105.64719 239.816683) scale(0.08 -0.08)">
      <use xlink:href="#DejaVuSans-32"/>
      <use xlink:href="#DejaVuSans-31" x="63.623047"/>
     </g>
    </g>
   </g>
   <g id="text_23">
    <g clip-path="url(#p16cbef47c2)">
     <!-- 22 -->
     <g style="fill: #ffffff" transform="translate(429.897941 109.814773) scale(0.08 -0.08)">
      <use xlink:href="#DejaVuSans-32"/>
      <use xlink:href="#DejaVuSans-32" x="63.623047"/>
     </g>
    </g>
   </g>
   <g id="text_24">
    <g clip-path="url(#p16cbef47c2)">
     <!-- 23 -->
     <g style="fill: #ffffff" transform="translate(350.555944 470.74305) scale(0.08 -0.08)">
      <use xlink:href="#DejaVuSans-32"/>
      <use xlink:href="#DejaVuSans-33" x="63.623047"/>
     </g>
    </g>
   </g>
   <g id="text_25">
    <g clip-path="url(#p16cbef47c2)">
     <!-- 24 -->
     <g style="fill: #ffffff" transform="translate(364.240386 463.512264) scale(0.08 -0.08)">
      <use xlink:href="#DejaVuSans-32"/>
      <use xlink:href="#DejaVuSans-34" x="63.623047"/>
     </g>
    </g>
   </g>
   <g id="text_26">
    <g clip-path="url(#p16cbef47c2)">
     <!-- 25 -->
     <g style="fill: #ffffff" transform="translate(389.139838 208.758782) scale(0.08 -0.08)">
      <use xlink:href="#DejaVuSans-32"/>
      <use xlink:href="#DejaVuSans-35" x="63.623047"/>
     </g>
    </g>
   </g>
   <g id="text_27">
    <g clip-path="url(#p16cbef47c2)">
     <!-- 26 -->
     <g style="fill: #ffffff" transform="translate(344.182209 268.411043) scale(0.08 -0.08)">
      <use xlink:href="#DejaVuSans-32"/>
      <use xlink:href="#DejaVuSans-36" x="63.623047"/>
     </g>
    </g>
   </g>
   <g id="text_28">
    <g clip-path="url(#p16cbef47c2)">
     <!-- 27 -->
     <g style="fill: #ffffff" transform="translate(395.218223 254.769132) scale(0.08 -0.08)">
      <use xlink:href="#DejaVuSans-32"/>
      <use xlink:href="#DejaVuSans-37" x="63.623047"/>
     </g>
    </g>
   </g>
   <g id="text_29">
    <g clip-path="url(#p16cbef47c2)">
     <!-- 28 -->
     <g style="fill: #ffffff" transform="translate(333.230214 476.360227) scale(0.08 -0.08)">
      <use xlink:href="#DejaVuSans-32"/>
      <use xlink:href="#DejaVuSans-38" x="63.623047"/>
     </g>
    </g>
   </g>
   <g id="text_30">
    <g clip-path="url(#p16cbef47c2)">
     <!-- 29 -->
     <g style="fill: #ffffff" transform="translate(136.897788 288.436371) scale(0.08 -0.08)">
      <use xlink:href="#DejaVuSans-32"/>
      <use xlink:href="#DejaVuSans-39" x="63.623047"/>
     </g>
    </g>
   </g>
   <g id="text_31">
    <!-- Optimized Layout -->
    <g transform="translate(242.183437 63.12) scale(0.12 -0.12)">
     <defs>
      <path id="DejaVuSans-4f" d="M 2522 4238 
Q 1834 4238 1429 3725 
Q 1025 3213 1025 2328 
Q 1025 1447 1429 934 
Q 1834 422 2522 422 
Q 3209 422 3611 934 
Q 4013 1447 4013 2328 
Q 4013 3213 3611 3725 
Q 3209 4238 2522 4238 
z
M 2522 4750 
Q 3503 4750 4090 4092 
Q 4678 3434 4678 2328 
Q 4678 1225 4090 567 
Q 3503 -91 2522 -91 
Q 1538 -91 948 565 
Q 359 1222 359 2328 
Q 359 3434 948 4092 
Q 1538 4750 2522 4750 
z
" transform="scale(0.015625)"/>
      <path id="DejaVuSans-70" d="M 1159 525 
L 1159 -1331 
L 581 -1331 
L 581 3500 
L 1159 3500 
L 1159 2969 
Q 1341 3281 1617 3432 
Q 1894 3584 2278 3584 
Q 2916 3584 3314 3078 
Q 3713 2572 3713 1747 
Q 3713 922 3314 415 
Q 2916 -91 2278 -91 
Q 1894 -91 1617 61 
Q 1341 213 1159 525 
z
M 3116 1747 
Q 3116 2381 2855 2742 
Q 2594 3103 2138 3103 
Q 1681 3103 1420 2742 
Q 1159 2381 1159 1747 
Q 1159 1113 1420 752 
Q 1681 391 2138 391 
Q 2594 391 2855 752 
Q 3116 1113 3116 1747 
z
" transform="scale(0.015625)"/>
      <path id="DejaVuSans-74" d="M 1172 4494 
L 1172 3500 
L 2356 3500 
L 2356 3053 
L 1172 3053 
L 1172 1153 
Q 1172 725 1289 603 
Q 1406 481 1766 481 
L 2356 481 
L 2356 0 
L 1766 0 
Q 1100 0 847 248 
Q 594 497 594 1153 
L 594 3053 
L 172 3053 
L 172 3500 
L 594 3500 
L 594 4494 
L 1172 4494 
z
" transform="scale(0.015625)"/>
      <path id="DejaVuSans-69" d="M 603 3500 
L 1178 3500 
L 1178 0 
L 603 0 
L 603 3500 
z
M 603 4863 
L 1178 4863 
L 1178 4134 
L 603 4134 
L 603 4863 
z
" transform="scale(0.015625)"/>
      <path id="DejaVuSans-6d" d="M 3328 2828 
Q 3544 3216 3844 3400 
Q 4144 3584 4550 3584 
Q 5097 3584 5394 3201 
Q 5691 2819 5691 2113 
L 5691 0 
L 5113 0 
L 5113 2094 
Q 5113 2597 4934 2840 
Q 4756 3084 4391 3084 
Q 3944 3084 3684 2787 
Q 3425 2491 3425 1978 
L 3425 0 
L 2847 0 
L 2847 2094 
Q 2847 2600 2669 2842 
Q 2491 3084 2119 3084 
Q 1678 3084 1418 2786 
Q 1159 2488 1159 1978 
L 1159 0 
L 581 0 
L 581 3500 
L 1159 3500 
L 1159 2956 
Q 1356 3278 1631 3431 
Q 1906 3584 2284 3584 
Q 2666 3584 2933 3390 
Q 3200 3197 3328 2828 
z
" transform="scale(0.015625)"/>
      <path id="DejaVuSans-7a" d="M 353 3500 
L 3084 3500 
L 3084 2975 
L 922 459 
L 3084 459 
L 3084 0 
L 275 0 
L 275 525 
L 2438 3041 
L 353 3041 
L 353 3500 
z
" transform="scale(0.015625)"/>
      <path id="DejaVuSans-65" d="M 3597 1894 
L 3597 1613 
L 953 1613 
Q 991 1019 1311 708 
Q 1631 397 2203 397 
Q 2534 397 2845 478 
Q 3156 559 3463 722 
L 3463 178 
Q 3153 47 2828 -22 
Q 2503 -91 2169 -91 
Q 1331 -91 842 396 
Q 353 884 353 1716 
Q 353 2575 817 3079 
Q 1281 3584 2069 3584 
Q 2775 3584 3186 3129 
Q 3597 2675 3597 1894 
z
M 3022 2063 
Q 3016 2534 2758 2815 
Q 2500 3097 2075 3097 
Q 1594 3097 1305 2825 
Q 1016 2553 972 2059 
L 3022 2063 
z
" transform="scale(0.015625)"/>
      <path id="DejaVuSans-64" d="M 2906 2969 
L 2906 4863 
L 3481 4863 
L 3481 0 
L 2906 0 
L 2906 525 
Q 2725 213 2448 61 
Q 2172 -91 1784 -91 
Q 1150 -91 751 415 
Q 353 922 353 1747 
Q 353 2572 751 3078 
Q 1150 3584 1784 3584 
Q 2172 3584 2448 3432 
Q 2725 3281 2906 2969 
z
M 947 1747 
Q 947 1113 1208 752 
Q 1469 391 1925 391 
Q 2381 391 2643 752 
Q 2906 1113 2906 1747 
Q 2906 2381 2643 2742 
Q 2381 3103 1925 3103 
Q 1469 3103 1208 2742 
Q 947 2381 947 1747 
z
" transform="scale(0.015625)"/>
      <path id="DejaVuSans-20" transform="scale(0.015625)"/>
      <path id="DejaVuSans-4c" d="M 628 4666 
L 1259 4666 
L 1259 531 
L 3531 531 
L 3531 0 
L 628 0 
L 628 4666 
z
" transform="scale(0.015625)"/>
      <path id="DejaVuSans-61" d="M 2194 1759 
Q 1497 1759 1228 1600 
Q 959 1441 959 1056 
Q 959 750 1161 570 
Q 1363 391 1709 391 
Q 2188 391 2477 730 
Q 2766 1069 2766 1631 
L 2766 1759 
L 2194 1759 
z
M 3341 1997 
L 3341 0 
L 2766 0 
L 2766 531 
Q 2569 213 2275 61 
Q 1981 -91 1556 -91 
Q 1019 -91 701 211 
Q 384 513 384 1019 
Q 384 1609 779 1909 
Q 1175 2209 1959 2209 
L 2766 2209 
L 2766 2266 
Q 2766 2663 2505 2880 
Q 2244 3097 1772 3097 
Q 1472 3097 1187 3025 
Q 903 2953 641 2809 
L 641 3341 
Q 956 3463 1253 3523 
Q 1550 3584 1831 3584 
Q 2591 3584 2966 3190 
Q 3341 2797 3341 1997 
z
" transform="scale(0.015625)"/>
      <path id="DejaVuSans-79" d="M 2059 -325 
Q 1816 -950 1584 -1140 
Q 1353 -1331 966 -1331 
L 506 -1331 
L 506 -850 
L 844 -850 
Q 1081 -850 1212 -737 
Q 1344 -625 1503 -206 
L 1606 56 
L 191 3500 
L 800 3500 
L 1894 763 
L 2988 3500 
L 3597 3500 
L 2059 -325 
z
" transform="scale(0.015625)"/>
      <path id="DejaVuSans-6f" d="M 1959 3097 
Q 1497 3097 1228 2736 
Q 959 2375 959 1747 
Q 959 1119 1226 758 
Q 1494 397 1959 397 
Q 2419 397 2687 759 
Q 2956 1122 2956 1747 
Q 2956 2369 2687 2733 
Q 2419 3097 1959 3097 
z
M 1959 3584 
Q 2709 3584 3137 3096 
Q 3566 2609 3566 1747 
Q 3566 888 3137 398 
Q 2709 -91 1959 -91 
Q 1206 -91 779 398 
Q 353 888 353 1747 
Q 353 2609 779 3096 
Q 1206 3584 1959 3584 
z
" transform="scale(0.015625)"/>
      <path id="DejaVuSans-75" d="M 544 1381 
L 544 3500 
L 1119 3500 
L 1119 1403 
Q 1119 906 1312 657 
Q 1506 409 1894 409 
Q 2359 409 2629 706 
Q 2900 1003 2900 1516 
L 2900 3500 
L 3475 3500 
L 3475 0 
L 2900 0 
L 2900 538 
Q 2691 219 2414 64 
Q 2138 -91 1772 -91 
Q 1169 -91 856 284 
Q 544 659 544 1381 
z
M 1991 3584 
L 1991 3584 
z
" transform="scale(0.015625)"/>
     </defs>
     <use xlink:href="#DejaVuSans-4f"/>
     <use xlink:href="#DejaVuSans-70" x="78.710938"/>
     <use xlink:href="#DejaVuSans-74" x="142.1875"/>
     <use xlink:href="#DejaVuSans-69" x="181.396484"/>
     <use xlink:href="#DejaVuSans-6d" x="209.179688"/>
     <use xlink:href="#DejaVuSans-69" x="306.591797"/>
     <use xlink:href="#DejaVuSans-7a" x="334.375"/>
     <use xlink:href="#DejaVuSans-65" x="386.865234"/>
     <use xlink:href="#DejaVuSans-64" x="448.388672"/>
     <use xlink:href="#DejaVuSans-20" x="511.865234"/>
     <use xlink:href="#DejaVuSans-4c" x="543.652344"/>
     <use xlink:href="#DejaVuSans-61" x="599.365234"/>
     <use xlink:href="#DejaVuSans-79" x="660.644531"/>
     <use xlink:href="#DejaVuSans-6f" x="719.824219"/>
     <use xlink:href="#DejaVuSans-75" x="781.005859"/>
     <use xlink:href="#DejaVuSans-74" x="844.384766"/>
    </g>
   </g>
  </g>
 </g>
 <defs>
  <clipPath id="p16cbef47c2">
   <rect x="72" y="69.12" width="446.4" height="443.52"/>
  </clipPath>
 </defs>
</svg>
