<?xml version="1.0" encoding="utf-8" standalone="no"?>
<!DOCTYPE svg PUBLIC "-//W3C//DTD SVG 1.1//EN"
  "http://www.w3.org/Graphics/SVG/1.1/DTD/svg11.dtd">
<svg xmlns:xlink="http://www.w3.org/1999/xlink" width="576pt" height="576pt" viewBox="0 0 576 576" xmlns="http://www.w3.org/2000/svg" version="1.1">
 <metadata>
  <rdf:RDF xmlns:dc="http://purl.org/dc/elements/1.1/" xmlns:cc="http://creativecommons.org/ns#" xmlns:rdf="http://www.w3.org/1999/02/22-rdf-syntax-ns#">
   <cc:Work>
    <dc:type rdf:resource="http://purl.org/dc/dcmitype/StillImage"/>
    <dc:date>2024-12-10T18:34:00.585740</dc:date>
    <dc:format>image/svg+xml</dc:format>
    <dc:creator>
     <cc:Agent>
      <dc:title>Matplotlib v3.9.0, https://matplotlib.org/</dc:title>
     </cc:Agent>
    </dc:creator>
   </cc:Work>
  </rdf:RDF>
 </metadata>
 <defs>
  <style type="text/css">*{stroke-linejoin: round; stroke-linecap: butt}</style>
 </defs>
 <g id="figure_1">
  <g id="patch_1">
   <path d="M 0 576 
L 576 576 
L 576 0 
L 0 0 
z
" style="fill: #ffffff"/>
  </g>
  <g id="axes_1">
   <g id="patch_2">
    <path d="M 72 512.64 
L 518.4 512.64 
L 518.4 69.12 
L 72 69.12 
z
" style="fill: #ffffff"/>
   </g>
   <g id="LineCollection_1">
    <path d="M 400.60732 395.607273 
L 374.25549 107.607273 
" clip-path="url(#pc713c440f2)" style="fill: none; stroke: #000000"/>
    <path d="M 400.60732 395.607273 
L 407.195277 369.425455 
" clip-path="url(#pc713c440f2)" style="fill: none; stroke: #000000"/>
    <path d="M 400.60732 395.607273 
L 301.787957 264.698182 
" clip-path="url(#pc713c440f2)" style="fill: none; stroke: #000000"/>
    <path d="M 400.60732 395.607273 
L 341.315702 238.516364 
" clip-path="url(#pc713c440f2)" style="fill: none; stroke: #000000"/>
    <path d="M 400.60732 395.607273 
L 347.90366 212.334545 
" clip-path="url(#pc713c440f2)" style="fill: none; stroke: #000000"/>
    <path d="M 110.73719 474.152727 
L 150.264935 317.061818 
" clip-path="url(#pc713c440f2)" style="fill: none; stroke: #000000"/>
    <path d="M 110.73719 474.152727 
L 130.501063 421.789091 
" clip-path="url(#pc713c440f2)" style="fill: none; stroke: #000000"/>
    <path d="M 110.73719 474.152727 
L 479.66281 474.152727 
" clip-path="url(#pc713c440f2)" style="fill: none; stroke: #000000"/>
    <path d="M 110.73719 474.152727 
L 466.486895 447.970909 
" clip-path="url(#pc713c440f2)" style="fill: none; stroke: #000000"/>
    <path d="M 466.486895 447.970909 
L 479.66281 474.152727 
" clip-path="url(#pc713c440f2)" style="fill: none; stroke: #000000"/>
    <path d="M 466.486895 447.970909 
L 130.501063 421.789091 
" clip-path="url(#pc713c440f2)" style="fill: none; stroke: #000000"/>
    <path d="M 466.486895 447.970909 
L 433.547107 343.243636 
" clip-path="url(#pc713c440f2)" style="fill: none; stroke: #000000"/>
    <path d="M 466.486895 447.970909 
L 440.135065 317.061818 
" clip-path="url(#pc713c440f2)" style="fill: none; stroke: #000000"/>
    <path d="M 466.486895 447.970909 
L 407.195277 369.425455 
" clip-path="url(#pc713c440f2)" style="fill: none; stroke: #000000"/>
    <path d="M 440.135065 317.061818 
L 433.547107 343.243636 
" clip-path="url(#pc713c440f2)" style="fill: none; stroke: #000000"/>
    <path d="M 440.135065 317.061818 
L 479.66281 474.152727 
" clip-path="url(#pc713c440f2)" style="fill: none; stroke: #000000"/>
    <path d="M 308.375915 107.607273 
L 301.787957 264.698182 
" clip-path="url(#pc713c440f2)" style="fill: none; stroke: #000000"/>
    <path d="M 308.375915 107.607273 
L 328.139787 186.152727 
" clip-path="url(#pc713c440f2)" style="fill: none; stroke: #000000"/>
    <path d="M 308.375915 107.607273 
L 295.2 290.88 
" clip-path="url(#pc713c440f2)" style="fill: none; stroke: #000000"/>
    <path d="M 308.375915 107.607273 
L 275.436128 238.516364 
" clip-path="url(#pc713c440f2)" style="fill: none; stroke: #000000"/>
    <path d="M 150.264935 317.061818 
L 156.852893 343.243636 
" clip-path="url(#pc713c440f2)" style="fill: none; stroke: #000000"/>
    <path d="M 150.264935 317.061818 
L 130.501063 421.789091 
" clip-path="url(#pc713c440f2)" style="fill: none; stroke: #000000"/>
    <path d="M 341.315702 238.516364 
L 347.90366 212.334545 
" clip-path="url(#pc713c440f2)" style="fill: none; stroke: #000000"/>
    <path d="M 341.315702 238.516364 
L 301.787957 264.698182 
" clip-path="url(#pc713c440f2)" style="fill: none; stroke: #000000"/>
    <path d="M 341.315702 238.516364 
L 334.727745 212.334545 
" clip-path="url(#pc713c440f2)" style="fill: none; stroke: #000000"/>
    <path d="M 176.616765 264.698182 
L 156.852893 343.243636 
" clip-path="url(#pc713c440f2)" style="fill: none; stroke: #000000"/>
    <path d="M 176.616765 264.698182 
L 189.79268 317.061818 
" clip-path="url(#pc713c440f2)" style="fill: none; stroke: #000000"/>
    <path d="M 176.616765 264.698182 
L 170.028808 369.425455 
" clip-path="url(#pc713c440f2)" style="fill: none; stroke: #000000"/>
    <path d="M 374.25549 107.607273 
L 426.95915 317.061818 
" clip-path="url(#pc713c440f2)" style="fill: none; stroke: #000000"/>
    <path d="M 374.25549 107.607273 
L 407.195277 369.425455 
" clip-path="url(#pc713c440f2)" style="fill: none; stroke: #000000"/>
    <path d="M 374.25549 107.607273 
L 347.90366 212.334545 
" clip-path="url(#pc713c440f2)" style="fill: none; stroke: #000000"/>
    <path d="M 156.852893 343.243636 
L 130.501063 421.789091 
" clip-path="url(#pc713c440f2)" style="fill: none; stroke: #000000"/>
    <path d="M 156.852893 343.243636 
L 170.028808 369.425455 
" clip-path="url(#pc713c440f2)" style="fill: none; stroke: #000000"/>
    <path d="M 130.501063 421.789091 
L 170.028808 369.425455 
" clip-path="url(#pc713c440f2)" style="fill: none; stroke: #000000"/>
    <path d="M 301.787957 264.698182 
L 295.2 290.88 
" clip-path="url(#pc713c440f2)" style="fill: none; stroke: #000000"/>
    <path d="M 301.787957 264.698182 
L 328.139787 186.152727 
" clip-path="url(#pc713c440f2)" style="fill: none; stroke: #000000"/>
    <path d="M 301.787957 264.698182 
L 334.727745 212.334545 
" clip-path="url(#pc713c440f2)" style="fill: none; stroke: #000000"/>
    <path d="M 295.2 290.88 
L 249.084298 317.061818 
" clip-path="url(#pc713c440f2)" style="fill: none; stroke: #000000"/>
    <path d="M 295.2 290.88 
L 268.84817 264.698182 
" clip-path="url(#pc713c440f2)" style="fill: none; stroke: #000000"/>
    <path d="M 295.2 290.88 
L 275.436128 238.516364 
" clip-path="url(#pc713c440f2)" style="fill: none; stroke: #000000"/>
    <path d="M 249.084298 317.061818 
L 216.14451 343.243636 
" clip-path="url(#pc713c440f2)" style="fill: none; stroke: #000000"/>
    <path d="M 249.084298 317.061818 
L 235.908383 290.88 
" clip-path="url(#pc713c440f2)" style="fill: none; stroke: #000000"/>
    <path d="M 249.084298 317.061818 
L 255.672255 212.334545 
" clip-path="url(#pc713c440f2)" style="fill: none; stroke: #000000"/>
    <path d="M 249.084298 317.061818 
L 268.84817 264.698182 
" clip-path="url(#pc713c440f2)" style="fill: none; stroke: #000000"/>
    <path d="M 433.547107 343.243636 
L 407.195277 369.425455 
" clip-path="url(#pc713c440f2)" style="fill: none; stroke: #000000"/>
    <path d="M 433.547107 343.243636 
L 426.95915 317.061818 
" clip-path="url(#pc713c440f2)" style="fill: none; stroke: #000000"/>
    <path d="M 170.028808 369.425455 
L 216.14451 343.243636 
" clip-path="url(#pc713c440f2)" style="fill: none; stroke: #000000"/>
    <path d="M 170.028808 369.425455 
L 189.79268 317.061818 
" clip-path="url(#pc713c440f2)" style="fill: none; stroke: #000000"/>
    <path d="M 268.84817 264.698182 
L 255.672255 212.334545 
" clip-path="url(#pc713c440f2)" style="fill: none; stroke: #000000"/>
    <path d="M 268.84817 264.698182 
L 275.436128 238.516364 
" clip-path="url(#pc713c440f2)" style="fill: none; stroke: #000000"/>
    <path d="M 216.14451 212.334545 
L 235.908383 290.88 
" clip-path="url(#pc713c440f2)" style="fill: none; stroke: #000000"/>
    <path d="M 216.14451 212.334545 
L 196.380638 290.88 
" clip-path="url(#pc713c440f2)" style="fill: none; stroke: #000000"/>
    <path d="M 216.14451 212.334545 
L 216.14451 343.243636 
" clip-path="url(#pc713c440f2)" style="fill: none; stroke: #000000"/>
    <path d="M 216.14451 343.243636 
L 189.79268 317.061818 
" clip-path="url(#pc713c440f2)" style="fill: none; stroke: #000000"/>
    <path d="M 216.14451 343.243636 
L 196.380638 290.88 
" clip-path="url(#pc713c440f2)" style="fill: none; stroke: #000000"/>
    <path d="M 216.14451 343.243636 
L 235.908383 290.88 
" clip-path="url(#pc713c440f2)" style="fill: none; stroke: #000000"/>
    <path d="M 196.380638 290.88 
L 189.79268 317.061818 
" clip-path="url(#pc713c440f2)" style="fill: none; stroke: #000000"/>
    <path d="M 426.95915 317.061818 
L 407.195277 369.425455 
" clip-path="url(#pc713c440f2)" style="fill: none; stroke: #000000"/>
    <path d="M 334.727745 212.334545 
L 328.139787 186.152727 
" clip-path="url(#pc713c440f2)" style="fill: none; stroke: #000000"/>
    <path d="M 255.672255 212.334545 
L 235.908383 290.88 
" clip-path="url(#pc713c440f2)" style="fill: none; stroke: #000000"/>
   </g>
   <g id="matplotlib.axis_1">
    <g id="xtick_1"/>
    <g id="xtick_2"/>
    <g id="xtick_3"/>
    <g id="xtick_4"/>
    <g id="xtick_5"/>
   </g>
   <g id="matplotlib.axis_2">
    <g id="ytick_1"/>
    <g id="ytick_2"/>
    <g id="ytick_3"/>
    <g id="ytick_4"/>
    <g id="ytick_5"/>
    <g id="ytick_6"/>
   </g>
   <g id="PathCollection_1">
    <defs>
     <path id="m635f11f491" d="M 0 3.535534 
C 0.937635 3.535534 1.836992 3.163008 2.5 2.5 
C 3.163008 1.836992 3.535534 0.937635 3.535534 0 
C 3.535534 -0.937635 3.163008 -1.836992 2.5 -2.5 
C 1.836992 -3.163008 0.937635 -3.535534 0 -3.535534 
C -0.937635 -3.535534 -1.836992 -3.163008 -2.5 -2.5 
C -3.163008 -1.836992 -3.535534 -0.937635 -3.535534 0 
C -3.535534 0.937635 -3.163008 1.836992 -2.5 2.5 
C -1.836992 3.163008 -0.937635 3.535534 0 3.535534 
z
" style="stroke: #0000ff"/>
    </defs>
    <g clip-path="url(#pc713c440f2)">
     <use xlink:href="#m635f11f491" x="400.60732" y="395.607273" style="fill: #0000ff; stroke: #0000ff"/>
     <use xlink:href="#m635f11f491" x="110.73719" y="474.152727" style="fill: #0000ff; stroke: #0000ff"/>
     <use xlink:href="#m635f11f491" x="466.486895" y="447.970909" style="fill: #0000ff; stroke: #0000ff"/>
     <use xlink:href="#m635f11f491" x="440.135065" y="317.061818" style="fill: #0000ff; stroke: #0000ff"/>
     <use xlink:href="#m635f11f491" x="308.375915" y="107.607273" style="fill: #0000ff; stroke: #0000ff"/>
     <use xlink:href="#m635f11f491" x="150.264935" y="317.061818" style="fill: #0000ff; stroke: #0000ff"/>
     <use xlink:href="#m635f11f491" x="341.315702" y="238.516364" style="fill: #0000ff; stroke: #0000ff"/>
     <use xlink:href="#m635f11f491" x="176.616765" y="264.698182" style="fill: #0000ff; stroke: #0000ff"/>
     <use xlink:href="#m635f11f491" x="374.25549" y="107.607273" style="fill: #0000ff; stroke: #0000ff"/>
     <use xlink:href="#m635f11f491" x="156.852893" y="343.243636" style="fill: #0000ff; stroke: #0000ff"/>
     <use xlink:href="#m635f11f491" x="130.501063" y="421.789091" style="fill: #0000ff; stroke: #0000ff"/>
     <use xlink:href="#m635f11f491" x="347.90366" y="212.334545" style="fill: #0000ff; stroke: #0000ff"/>
     <use xlink:href="#m635f11f491" x="301.787957" y="264.698182" style="fill: #0000ff; stroke: #0000ff"/>
     <use xlink:href="#m635f11f491" x="295.2" y="290.88" style="fill: #0000ff; stroke: #0000ff"/>
     <use xlink:href="#m635f11f491" x="249.084298" y="317.061818" style="fill: #0000ff; stroke: #0000ff"/>
     <use xlink:href="#m635f11f491" x="433.547107" y="343.243636" style="fill: #0000ff; stroke: #0000ff"/>
     <use xlink:href="#m635f11f491" x="170.028808" y="369.425455" style="fill: #0000ff; stroke: #0000ff"/>
     <use xlink:href="#m635f11f491" x="268.84817" y="264.698182" style="fill: #0000ff; stroke: #0000ff"/>
     <use xlink:href="#m635f11f491" x="216.14451" y="212.334545" style="fill: #0000ff; stroke: #0000ff"/>
     <use xlink:href="#m635f11f491" x="216.14451" y="343.243636" style="fill: #0000ff; stroke: #0000ff"/>
     <use xlink:href="#m635f11f491" x="196.380638" y="290.88" style="fill: #0000ff; stroke: #0000ff"/>
     <use xlink:href="#m635f11f491" x="426.95915" y="317.061818" style="fill: #0000ff; stroke: #0000ff"/>
     <use xlink:href="#m635f11f491" x="275.436128" y="238.516364" style="fill: #0000ff; stroke: #0000ff"/>
     <use xlink:href="#m635f11f491" x="334.727745" y="212.334545" style="fill: #0000ff; stroke: #0000ff"/>
     <use xlink:href="#m635f11f491" x="328.139787" y="186.152727" style="fill: #0000ff; stroke: #0000ff"/>
     <use xlink:href="#m635f11f491" x="255.672255" y="212.334545" style="fill: #0000ff; stroke: #0000ff"/>
     <use xlink:href="#m635f11f491" x="235.908383" y="290.88" style="fill: #0000ff; stroke: #0000ff"/>
     <use xlink:href="#m635f11f491" x="189.79268" y="317.061818" style="fill: #0000ff; stroke: #0000ff"/>
     <use xlink:href="#m635f11f491" x="479.66281" y="474.152727" style="fill: #0000ff; stroke: #0000ff"/>
     <use xlink:href="#m635f11f491" x="407.195277" y="369.425455" style="fill: #0000ff; stroke: #0000ff"/>
    </g>
   </g>
   <g id="patch_3">
    <path d="M 72 512.64 
L 72 69.12 
" style="fill: none; stroke: #000000; stroke-width: 0.8; stroke-linejoin: miter; stroke-linecap: square"/>
   </g>
   <g id="patch_4">
    <path d="M 518.4 512.64 
L 518.4 69.12 
" style="fill: none; stroke: #000000; stroke-width: 0.8; stroke-linejoin: miter; stroke-linecap: square"/>
   </g>
   <g id="patch_5">
    <path d="M 72 512.64 
L 518.4 512.64 
" style="fill: none; stroke: #000000; stroke-width: 0.8; stroke-linejoin: miter; stroke-linecap: square"/>
   </g>
   <g id="patch_6">
    <path d="M 72 69.12 
L 518.4 69.12 
" style="fill: none; stroke: #000000; stroke-width: 0.8; stroke-linejoin: miter; stroke-linecap: square"/>
   </g>
   <g id="text_1">
    <g clip-path="url(#pc713c440f2)">
     <!-- 0 -->
     <g style="fill: #ffffff" transform="translate(398.06232 397.814773) scale(0.08 -0.08)">
      <defs>
       <path id="DejaVuSans-30" d="M 2034 4250 
Q 1547 4250 1301 3770 
Q 1056 3291 1056 2328 
Q 1056 1369 1301 889 
Q 1547 409 2034 409 
Q 2525 409 2770 889 
Q 3016 1369 3016 2328 
Q 3016 3291 2770 3770 
Q 2525 4250 2034 4250 
z
M 2034 4750 
Q 2819 4750 3233 4129 
Q 3647 3509 3647 2328 
Q 3647 1150 3233 529 
Q 2819 -91 2034 -91 
Q 1250 -91 836 529 
Q 422 1150 422 2328 
Q 422 3509 836 4129 
Q 1250 4750 2034 4750 
z
" transform="scale(0.015625)"/>
      </defs>
      <use xlink:href="#DejaVuSans-30"/>
     </g>
    </g>
   </g>
   <g id="text_2">
    <g clip-path="url(#pc713c440f2)">
     <!-- 1 -->
     <g style="fill: #ffffff" transform="translate(108.19219 476.360227) scale(0.08 -0.08)">
      <defs>
       <path id="DejaVuSans-31" d="M 794 531 
L 1825 531 
L 1825 4091 
L 703 3866 
L 703 4441 
L 1819 4666 
L 2450 4666 
L 2450 531 
L 3481 531 
L 3481 0 
L 794 0 
L 794 531 
z
" transform="scale(0.015625)"/>
      </defs>
      <use xlink:href="#DejaVuSans-31"/>
     </g>
    </g>
   </g>
   <g id="text_3">
    <g clip-path="url(#pc713c440f2)">
     <!-- 2 -->
     <g style="fill: #ffffff" transform="translate(463.941895 450.178409) scale(0.08 -0.08)">
      <defs>
       <path id="DejaVuSans-32" d="M 1228 531 
L 3431 531 
L 3431 0 
L 469 0 
L 469 531 
Q 828 903 1448 1529 
Q 2069 2156 2228 2338 
Q 2531 2678 2651 2914 
Q 2772 3150 2772 3378 
Q 2772 3750 2511 3984 
Q 2250 4219 1831 4219 
Q 1534 4219 1204 4116 
Q 875 4013 500 3803 
L 500 4441 
Q 881 4594 1212 4672 
Q 1544 4750 1819 4750 
Q 2544 4750 2975 4387 
Q 3406 4025 3406 3419 
Q 3406 3131 3298 2873 
Q 3191 2616 2906 2266 
Q 2828 2175 2409 1742 
Q 1991 1309 1228 531 
z
" transform="scale(0.015625)"/>
      </defs>
      <use xlink:href="#DejaVuSans-32"/>
     </g>
    </g>
   </g>
   <g id="text_4">
    <g clip-path="url(#pc713c440f2)">
     <!-- 3 -->
     <g style="fill: #ffffff" transform="translate(437.590065 319.269318) scale(0.08 -0.08)">
      <defs>
       <path id="DejaVuSans-33" d="M 2597 2516 
Q 3050 2419 3304 2112 
Q 3559 1806 3559 1356 
Q 3559 666 3084 287 
Q 2609 -91 1734 -91 
Q 1441 -91 1130 -33 
Q 819 25 488 141 
L 488 750 
Q 750 597 1062 519 
Q 1375 441 1716 441 
Q 2309 441 2620 675 
Q 2931 909 2931 1356 
Q 2931 1769 2642 2001 
Q 2353 2234 1838 2234 
L 1294 2234 
L 1294 2753 
L 1863 2753 
Q 2328 2753 2575 2939 
Q 2822 3125 2822 3475 
Q 2822 3834 2567 4026 
Q 2313 4219 1838 4219 
Q 1578 4219 1281 4162 
Q 984 4106 628 3988 
L 628 4550 
Q 988 4650 1302 4700 
Q 1616 4750 1894 4750 
Q 2613 4750 3031 4423 
Q 3450 4097 3450 3541 
Q 3450 3153 3228 2886 
Q 3006 2619 2597 2516 
z
" transform="scale(0.015625)"/>
      </defs>
      <use xlink:href="#DejaVuSans-33"/>
     </g>
    </g>
   </g>
   <g id="text_5">
    <g clip-path="url(#pc713c440f2)">
     <!-- 4 -->
     <g style="fill: #ffffff" transform="translate(305.830915 109.814773) scale(0.08 -0.08)">
      <defs>
       <path id="DejaVuSans-34" d="M 2419 4116 
L 825 1625 
L 2419 1625 
L 2419 4116 
z
M 2253 4666 
L 3047 4666 
L 3047 1625 
L 3713 1625 
L 3713 1100 
L 3047 1100 
L 3047 0 
L 2419 0 
L 2419 1100 
L 313 1100 
L 313 1709 
L 2253 4666 
z
" transform="scale(0.015625)"/>
      </defs>
      <use xlink:href="#DejaVuSans-34"/>
     </g>
    </g>
   </g>
   <g id="text_6">
    <g clip-path="url(#pc713c440f2)">
     <!-- 5 -->
     <g style="fill: #ffffff" transform="translate(147.719935 319.269318) scale(0.08 -0.08)">
      <defs>
       <path id="DejaVuSans-35" d="M 691 4666 
L 3169 4666 
L 3169 4134 
L 1269 4134 
L 1269 2991 
Q 1406 3038 1543 3061 
Q 1681 3084 1819 3084 
Q 2600 3084 3056 2656 
Q 3513 2228 3513 1497 
Q 3513 744 3044 326 
Q 2575 -91 1722 -91 
Q 1428 -91 1123 -41 
Q 819 9 494 109 
L 494 744 
Q 775 591 1075 516 
Q 1375 441 1709 441 
Q 2250 441 2565 725 
Q 2881 1009 2881 1497 
Q 2881 1984 2565 2268 
Q 2250 2553 1709 2553 
Q 1456 2553 1204 2497 
Q 953 2441 691 2322 
L 691 4666 
z
" transform="scale(0.015625)"/>
      </defs>
      <use xlink:href="#DejaVuSans-35"/>
     </g>
    </g>
   </g>
   <g id="text_7">
    <g clip-path="url(#pc713c440f2)">
     <!-- 6 -->
     <g style="fill: #ffffff" transform="translate(338.770702 240.723864) scale(0.08 -0.08)">
      <defs>
       <path id="DejaVuSans-36" d="M 2113 2584 
Q 1688 2584 1439 2293 
Q 1191 2003 1191 1497 
Q 1191 994 1439 701 
Q 1688 409 2113 409 
Q 2538 409 2786 701 
Q 3034 994 3034 1497 
Q 3034 2003 2786 2293 
Q 2538 2584 2113 2584 
z
M 3366 4563 
L 3366 3988 
Q 3128 4100 2886 4159 
Q 2644 4219 2406 4219 
Q 1781 4219 1451 3797 
Q 1122 3375 1075 2522 
Q 1259 2794 1537 2939 
Q 1816 3084 2150 3084 
Q 2853 3084 3261 2657 
Q 3669 2231 3669 1497 
Q 3669 778 3244 343 
Q 2819 -91 2113 -91 
Q 1303 -91 875 529 
Q 447 1150 447 2328 
Q 447 3434 972 4092 
Q 1497 4750 2381 4750 
Q 2619 4750 2861 4703 
Q 3103 4656 3366 4563 
z
" transform="scale(0.015625)"/>
      </defs>
      <use xlink:href="#DejaVuSans-36"/>
     </g>
    </g>
   </g>
   <g id="text_8">
    <g clip-path="url(#pc713c440f2)">
     <!-- 7 -->
     <g style="fill: #ffffff" transform="translate(174.071765 266.905682) scale(0.08 -0.08)">
      <defs>
       <path id="DejaVuSans-37" d="M 525 4666 
L 3525 4666 
L 3525 4397 
L 1831 0 
L 1172 0 
L 2766 4134 
L 525 4134 
L 525 4666 
z
" transform="scale(0.015625)"/>
      </defs>
      <use xlink:href="#DejaVuSans-37"/>
     </g>
    </g>
   </g>
   <g id="text_9">
    <g clip-path="url(#pc713c440f2)">
     <!-- 8 -->
     <g style="fill: #ffffff" transform="translate(371.71049 109.814773) scale(0.08 -0.08)">
      <defs>
       <path id="DejaVuSans-38" d="M 2034 2216 
Q 1584 2216 1326 1975 
Q 1069 1734 1069 1313 
Q 1069 891 1326 650 
Q 1584 409 2034 409 
Q 2484 409 2743 651 
Q 3003 894 3003 1313 
Q 3003 1734 2745 1975 
Q 2488 2216 2034 2216 
z
M 1403 2484 
Q 997 2584 770 2862 
Q 544 3141 544 3541 
Q 544 4100 942 4425 
Q 1341 4750 2034 4750 
Q 2731 4750 3128 4425 
Q 3525 4100 3525 3541 
Q 3525 3141 3298 2862 
Q 3072 2584 2669 2484 
Q 3125 2378 3379 2068 
Q 3634 1759 3634 1313 
Q 3634 634 3220 271 
Q 2806 -91 2034 -91 
Q 1263 -91 848 271 
Q 434 634 434 1313 
Q 434 1759 690 2068 
Q 947 2378 1403 2484 
z
M 1172 3481 
Q 1172 3119 1398 2916 
Q 1625 2713 2034 2713 
Q 2441 2713 2670 2916 
Q 2900 3119 2900 3481 
Q 2900 3844 2670 4047 
Q 2441 4250 2034 4250 
Q 1625 4250 1398 4047 
Q 1172 3844 1172 3481 
z
" transform="scale(0.015625)"/>
      </defs>
      <use xlink:href="#DejaVuSans-38"/>
     </g>
    </g>
   </g>
   <g id="text_10">
    <g clip-path="url(#pc713c440f2)">
     <!-- 9 -->
     <g style="fill: #ffffff" transform="translate(154.307893 345.451136) scale(0.08 -0.08)">
      <defs>
       <path id="DejaVuSans-39" d="M 703 97 
L 703 672 
Q 941 559 1184 500 
Q 1428 441 1663 441 
Q 2288 441 2617 861 
Q 2947 1281 2994 2138 
Q 2813 1869 2534 1725 
Q 2256 1581 1919 1581 
Q 1219 1581 811 2004 
Q 403 2428 403 3163 
Q 403 3881 828 4315 
Q 1253 4750 1959 4750 
Q 2769 4750 3195 4129 
Q 3622 3509 3622 2328 
Q 3622 1225 3098 567 
Q 2575 -91 1691 -91 
Q 1453 -91 1209 -44 
Q 966 3 703 97 
z
M 1959 2075 
Q 2384 2075 2632 2365 
Q 2881 2656 2881 3163 
Q 2881 3666 2632 3958 
Q 2384 4250 1959 4250 
Q 1534 4250 1286 3958 
Q 1038 3666 1038 3163 
Q 1038 2656 1286 2365 
Q 1534 2075 1959 2075 
z
" transform="scale(0.015625)"/>
      </defs>
      <use xlink:href="#DejaVuSans-39"/>
     </g>
    </g>
   </g>
   <g id="text_11">
    <g clip-path="url(#pc713c440f2)">
     <!-- 10 -->
     <g style="fill: #ffffff" transform="translate(125.411063 423.996591) scale(0.08 -0.08)">
      <use xlink:href="#DejaVuSans-31"/>
      <use xlink:href="#DejaVuSans-30" x="63.623047"/>
     </g>
    </g>
   </g>
   <g id="text_12">
    <g clip-path="url(#pc713c440f2)">
     <!-- 11 -->
     <g style="fill: #ffffff" transform="translate(342.81366 214.542045) scale(0.08 -0.08)">
      <use xlink:href="#DejaVuSans-31"/>
      <use xlink:href="#DejaVuSans-31" x="63.623047"/>
     </g>
    </g>
   </g>
   <g id="text_13">
    <g clip-path="url(#pc713c440f2)">
     <!-- 12 -->
     <g style="fill: #ffffff" transform="translate(296.697957 266.905682) scale(0.08 -0.08)">
      <use xlink:href="#DejaVuSans-31"/>
      <use xlink:href="#DejaVuSans-32" x="63.623047"/>
     </g>
    </g>
   </g>
   <g id="text_14">
    <g clip-path="url(#pc713c440f2)">
     <!-- 13 -->
     <g style="fill: #ffffff" transform="translate(290.11 293.0875) scale(0.08 -0.08)">
      <use xlink:href="#DejaVuSans-31"/>
      <use xlink:href="#DejaVuSans-33" x="63.623047"/>
     </g>
    </g>
   </g>
   <g id="text_15">
    <g clip-path="url(#pc713c440f2)">
     <!-- 14 -->
     <g style="fill: #ffffff" transform="translate(243.994298 319.269318) scale(0.08 -0.08)">
      <use xlink:href="#DejaVuSans-31"/>
      <use xlink:href="#DejaVuSans-34" x="63.623047"/>
     </g>
    </g>
   </g>
   <g id="text_16">
    <g clip-path="url(#pc713c440f2)">
     <!-- 15 -->
     <g style="fill: #ffffff" transform="translate(428.457107 345.451136) scale(0.08 -0.08)">
      <use xlink:href="#DejaVuSans-31"/>
      <use xlink:href="#DejaVuSans-35" x="63.623047"/>
     </g>
    </g>
   </g>
   <g id="text_17">
    <g clip-path="url(#pc713c440f2)">
     <!-- 16 -->
     <g style="fill: #ffffff" transform="translate(164.938808 371.632955) scale(0.08 -0.08)">
      <use xlink:href="#DejaVuSans-31"/>
      <use xlink:href="#DejaVuSans-36" x="63.623047"/>
     </g>
    </g>
   </g>
   <g id="text_18">
    <g clip-path="url(#pc713c440f2)">
     <!-- 17 -->
     <g style="fill: #ffffff" transform="translate(263.75817 266.905682) scale(0.08 -0.08)">
      <use xlink:href="#DejaVuSans-31"/>
      <use xlink:href="#DejaVuSans-37" x="63.623047"/>
     </g>
    </g>
   </g>
   <g id="text_19">
    <g clip-path="url(#pc713c440f2)">
     <!-- 18 -->
     <g style="fill: #ffffff" transform="translate(211.05451 214.542045) scale(0.08 -0.08)">
      <use xlink:href="#DejaVuSans-31"/>
      <use xlink:href="#DejaVuSans-38" x="63.623047"/>
     </g>
    </g>
   </g>
   <g id="text_20">
    <g clip-path="url(#pc713c440f2)">
     <!-- 19 -->
     <g style="fill: #ffffff" transform="translate(211.05451 345.451136) scale(0.08 -0.08)">
      <use xlink:href="#DejaVuSans-31"/>
      <use xlink:href="#DejaVuSans-39" x="63.623047"/>
     </g>
    </g>
   </g>
   <g id="text_21">
    <g clip-path="url(#pc713c440f2)">
     <!-- 20 -->
     <g style="fill: #ffffff" transform="translate(191.290638 293.0875) scale(0.08 -0.08)">
      <use xlink:href="#DejaVuSans-32"/>
      <use xlink:href="#DejaVuSans-30" x="63.623047"/>
     </g>
    </g>
   </g>
   <g id="text_22">
    <g clip-path="url(#pc713c440f2)">
     <!-- 21 -->
     <g style="fill: #ffffff" transform="translate(421.86915 319.269318) scale(0.08 -0.08)">
      <use xlink:href="#DejaVuSans-32"/>
      <use xlink:href="#DejaVuSans-31" x="63.623047"/>
     </g>
    </g>
   </g>
   <g id="text_23">
    <g clip-path="url(#pc713c440f2)">
     <!-- 22 -->
     <g style="fill: #ffffff" transform="translate(270.346128 240.723864) scale(0.08 -0.08)">
      <use xlink:href="#DejaVuSans-32"/>
      <use xlink:href="#DejaVuSans-32" x="63.623047"/>
     </g>
    </g>
   </g>
   <g id="text_24">
    <g clip-path="url(#pc713c440f2)">
     <!-- 23 -->
     <g style="fill: #ffffff" transform="translate(329.637745 214.542045) scale(0.08 -0.08)">
      <use xlink:href="#DejaVuSans-32"/>
      <use xlink:href="#DejaVuSans-33" x="63.623047"/>
     </g>
    </g>
   </g>
   <g id="text_25">
    <g clip-path="url(#pc713c440f2)">
     <!-- 24 -->
     <g style="fill: #ffffff" transform="translate(323.049787 188.360227) scale(0.08 -0.08)">
      <use xlink:href="#DejaVuSans-32"/>
      <use xlink:href="#DejaVuSans-34" x="63.623047"/>
     </g>
    </g>
   </g>
   <g id="text_26">
    <g clip-path="url(#pc713c440f2)">
     <!-- 25 -->
     <g style="fill: #ffffff" transform="translate(250.582255 214.542045) scale(0.08 -0.08)">
      <use xlink:href="#DejaVuSans-32"/>
      <use xlink:href="#DejaVuSans-35" x="63.623047"/>
     </g>
    </g>
   </g>
   <g id="text_27">
    <g clip-path="url(#pc713c440f2)">
     <!-- 26 -->
     <g style="fill: #ffffff" transform="translate(230.818383 293.0875) scale(0.08 -0.08)">
      <use xlink:href="#DejaVuSans-32"/>
      <use xlink:href="#DejaVuSans-36" x="63.623047"/>
     </g>
    </g>
   </g>
   <g id="text_28">
    <g clip-path="url(#pc713c440f2)">
     <!-- 27 -->
     <g style="fill: #ffffff" transform="translate(184.70268 319.269318) scale(0.08 -0.08)">
      <use xlink:href="#DejaVuSans-32"/>
      <use xlink:href="#DejaVuSans-37" x="63.623047"/>
     </g>
    </g>
   </g>
   <g id="text_29">
    <g clip-path="url(#pc713c440f2)">
     <!-- 28 -->
     <g style="fill: #ffffff" transform="translate(474.57281 476.360227) scale(0.08 -0.08)">
      <use xlink:href="#DejaVuSans-32"/>
      <use xlink:href="#DejaVuSans-38" x="63.623047"/>
     </g>
    </g>
   </g>
   <g id="text_30">
    <g clip-path="url(#pc713c440f2)">
     <!-- 29 -->
     <g style="fill: #ffffff" transform="translate(402.105277 371.632955) scale(0.08 -0.08)">
      <use xlink:href="#DejaVuSans-32"/>
      <use xlink:href="#DejaVuSans-39" x="63.623047"/>
     </g>
    </g>
   </g>
   <g id="text_31">
    <!-- Planar Layout -->
    <g transform="translate(253.988437 63.12) scale(0.12 -0.12)">
     <defs>
      <path id="DejaVuSans-50" d="M 1259 4147 
L 1259 2394 
L 2053 2394 
Q 2494 2394 2734 2622 
Q 2975 2850 2975 3272 
Q 2975 3691 2734 3919 
Q 2494 4147 2053 4147 
L 1259 4147 
z
M 628 4666 
L 2053 4666 
Q 2838 4666 3239 4311 
Q 3641 3956 3641 3272 
Q 3641 2581 3239 2228 
Q 2838 1875 2053 1875 
L 1259 1875 
L 1259 0 
L 628 0 
L 628 4666 
z
" transform="scale(0.015625)"/>
      <path id="DejaVuSans-6c" d="M 603 4863 
L 1178 4863 
L 1178 0 
L 603 0 
L 603 4863 
z
" transform="scale(0.015625)"/>
      <path id="DejaVuSans-61" d="M 2194 1759 
Q 1497 1759 1228 1600 
Q 959 1441 959 1056 
Q 959 750 1161 570 
Q 1363 391 1709 391 
Q 2188 391 2477 730 
Q 2766 1069 2766 1631 
L 2766 1759 
L 2194 1759 
z
M 3341 1997 
L 3341 0 
L 2766 0 
L 2766 531 
Q 2569 213 2275 61 
Q 1981 -91 1556 -91 
Q 1019 -91 701 211 
Q 384 513 384 1019 
Q 384 1609 779 1909 
Q 1175 2209 1959 2209 
L 2766 2209 
L 2766 2266 
Q 2766 2663 2505 2880 
Q 2244 3097 1772 3097 
Q 1472 3097 1187 3025 
Q 903 2953 641 2809 
L 641 3341 
Q 956 3463 1253 3523 
Q 1550 3584 1831 3584 
Q 2591 3584 2966 3190 
Q 3341 2797 3341 1997 
z
" transform="scale(0.015625)"/>
      <path id="DejaVuSans-6e" d="M 3513 2113 
L 3513 0 
L 2938 0 
L 2938 2094 
Q 2938 2591 2744 2837 
Q 2550 3084 2163 3084 
Q 1697 3084 1428 2787 
Q 1159 2491 1159 1978 
L 1159 0 
L 581 0 
L 581 3500 
L 1159 3500 
L 1159 2956 
Q 1366 3272 1645 3428 
Q 1925 3584 2291 3584 
Q 2894 3584 3203 3211 
Q 3513 2838 3513 2113 
z
" transform="scale(0.015625)"/>
      <path id="DejaVuSans-72" d="M 2631 2963 
Q 2534 3019 2420 3045 
Q 2306 3072 2169 3072 
Q 1681 3072 1420 2755 
Q 1159 2438 1159 1844 
L 1159 0 
L 581 0 
L 581 3500 
L 1159 3500 
L 1159 2956 
Q 1341 3275 1631 3429 
Q 1922 3584 2338 3584 
Q 2397 3584 2469 3576 
Q 2541 3569 2628 3553 
L 2631 2963 
z
" transform="scale(0.015625)"/>
      <path id="DejaVuSans-20" transform="scale(0.015625)"/>
      <path id="DejaVuSans-4c" d="M 628 4666 
L 1259 4666 
L 1259 531 
L 3531 531 
L 3531 0 
L 628 0 
L 628 4666 
z
" transform="scale(0.015625)"/>
      <path id="DejaVuSans-79" d="M 2059 -325 
Q 1816 -950 1584 -1140 
Q 1353 -1331 966 -1331 
L 506 -1331 
L 506 -850 
L 844 -850 
Q 1081 -850 1212 -737 
Q 1344 -625 1503 -206 
L 1606 56 
L 191 3500 
L 800 3500 
L 1894 763 
L 2988 3500 
L 3597 3500 
L 2059 -325 
z
" transform="scale(0.015625)"/>
      <path id="DejaVuSans-6f" d="M 1959 3097 
Q 1497 3097 1228 2736 
Q 959 2375 959 1747 
Q 959 1119 1226 758 
Q 1494 397 1959 397 
Q 2419 397 2687 759 
Q 2956 1122 2956 1747 
Q 2956 2369 2687 2733 
Q 2419 3097 1959 3097 
z
M 1959 3584 
Q 2709 3584 3137 3096 
Q 3566 2609 3566 1747 
Q 3566 888 3137 398 
Q 2709 -91 1959 -91 
Q 1206 -91 779 398 
Q 353 888 353 1747 
Q 353 2609 779 3096 
Q 1206 3584 1959 3584 
z
" transform="scale(0.015625)"/>
      <path id="DejaVuSans-75" d="M 544 1381 
L 544 3500 
L 1119 3500 
L 1119 1403 
Q 1119 906 1312 657 
Q 1506 409 1894 409 
Q 2359 409 2629 706 
Q 2900 1003 2900 1516 
L 2900 3500 
L 3475 3500 
L 3475 0 
L 2900 0 
L 2900 538 
Q 2691 219 2414 64 
Q 2138 -91 1772 -91 
Q 1169 -91 856 284 
Q 544 659 544 1381 
z
M 1991 3584 
L 1991 3584 
z
" transform="scale(0.015625)"/>
      <path id="DejaVuSans-74" d="M 1172 4494 
L 1172 3500 
L 2356 3500 
L 2356 3053 
L 1172 3053 
L 1172 1153 
Q 1172 725 1289 603 
Q 1406 481 1766 481 
L 2356 481 
L 2356 0 
L 1766 0 
Q 1100 0 847 248 
Q 594 497 594 1153 
L 594 3053 
L 172 3053 
L 172 3500 
L 594 3500 
L 594 4494 
L 1172 4494 
z
" transform="scale(0.015625)"/>
     </defs>
     <use xlink:href="#DejaVuSans-50"/>
     <use xlink:href="#DejaVuSans-6c" x="60.302734"/>
     <use xlink:href="#DejaVuSans-61" x="88.085938"/>
     <use xlink:href="#DejaVuSans-6e" x="149.365234"/>
     <use xlink:href="#DejaVuSans-61" x="212.744141"/>
     <use xlink:href="#DejaVuSans-72" x="274.023438"/>
     <use xlink:href="#DejaVuSans-20" x="315.136719"/>
     <use xlink:href="#DejaVuSans-4c" x="346.923828"/>
     <use xlink:href="#DejaVuSans-61" x="402.636719"/>
     <use xlink:href="#DejaVuSans-79" x="463.916016"/>
     <use xlink:href="#DejaVuSans-6f" x="523.095703"/>
     <use xlink:href="#DejaVuSans-75" x="584.277344"/>
     <use xlink:href="#DejaVuSans-74" x="647.65625"/>
    </g>
   </g>
  </g>
 </g>
 <defs>
  <clipPath id="pc713c440f2">
   <rect x="72" y="69.12" width="446.4" height="443.52"/>
  </clipPath>
 </defs>
</svg>
